<svg width="32" height="38" viewBox="0 0 32 38" fill="none" xmlns="http://www.w3.org/2000/svg">
<g filter="url(#filter0_d_196_4259)">
<path d="M23.5857 5.74643C21.5607 3.76786 18.8678 2.67857 16 2.67857C13.1321 2.67857 10.4393 3.76786 8.41428 5.74286C6.39642 7.71429 5.28571 10.3286 5.28571 13.1107C5.28571 21.7286 13.6464 27.6536 16 29.15C18.3536 27.6536 26.7143 21.7286 26.7143 13.1107C26.7143 10.3286 25.6036 7.71429 23.5857 5.74643ZM16 19.6786C12.5286 19.6786 9.71428 16.8643 9.71428 13.3929C9.71428 9.92143 12.5286 7.10715 16 7.10715C19.4714 7.10715 22.2857 9.92143 22.2857 13.3929C22.2857 16.8643 19.4714 19.6786 16 19.6786Z" fill="#73B72B"/>
<path d="M16 7.10715C12.5286 7.10715 9.71429 9.92143 9.71429 13.3929C9.71429 16.8643 12.5286 19.6786 16 19.6786C19.4714 19.6786 22.2857 16.8643 22.2857 13.3929C22.2857 9.92143 19.4714 7.10715 16 7.10715ZM18.8286 16.2214C18.4576 16.5935 18.0167 16.8885 17.5313 17.0896C17.0458 17.2906 16.5254 17.3937 16 17.3929C14.9322 17.3929 13.9286 16.975 13.1714 16.2214C12.7994 15.8504 12.5043 15.4095 12.3033 14.9241C12.1023 14.4387 11.9992 13.9183 12 13.3929C12 12.325 12.4179 11.3214 13.1714 10.5643C13.9286 9.80715 14.9322 9.39286 16 9.39286C17.0679 9.39286 18.0714 9.80715 18.8286 10.5643C19.5857 11.3214 20 12.325 20 13.3929C20 14.4607 19.5857 15.4643 18.8286 16.2214Z" fill="#73B72B"/>
</g>
<defs>
<filter id="filter0_d_196_4259" x="-4" y="0" width="40" height="40" filterUnits="userSpaceOnUse" color-interpolation-filters="sRGB">
<feFlood flood-opacity="0" result="BackgroundImageFix"/>
<feColorMatrix in="SourceAlpha" type="matrix" values="0 0 0 0 0 0 0 0 0 0 0 0 0 0 0 0 0 0 127 0" result="hardAlpha"/>
<feOffset dy="4"/>
<feGaussianBlur stdDeviation="2"/>
<feComposite in2="hardAlpha" operator="out"/>
<feColorMatrix type="matrix" values="0 0 0 0 0 0 0 0 0 0 0 0 0 0 0 0 0 0 0.25 0"/>
<feBlend mode="normal" in2="BackgroundImageFix" result="effect1_dropShadow_196_4259"/>
<feBlend mode="normal" in="SourceGraphic" in2="effect1_dropShadow_196_4259" result="shape"/>
</filter>
</defs>
</svg>
