<svg width="52" height="40" viewBox="0 0 52 40" fill="none" xmlns="http://www.w3.org/2000/svg">
<path d="M51 1.77084H1V31.7708H51V1.77084Z" stroke="white" stroke-width="2" stroke-linecap="round" stroke-linejoin="round"/>
<path d="M48.9163 31.9792H3.08301V35.1042H48.9163V31.9792Z" stroke="white" stroke-width="2" stroke-linecap="round" stroke-linejoin="round"/>
<path d="M46.8337 35.1042H5.16699V38.2292H46.8337V35.1042Z" stroke="white" stroke-width="2" stroke-linecap="round" stroke-linejoin="round"/>
<path d="M25.7492 28.0594C30.1891 28.0594 33.7884 23.1072 33.7884 16.9984C33.7884 10.8897 30.1891 5.9375 25.7492 5.9375C21.3092 5.9375 17.71 10.8897 17.71 16.9984C17.71 23.1072 21.3092 28.0594 25.7492 28.0594Z" stroke="white" stroke-width="2" stroke-linecap="round" stroke-linejoin="round"/>
<path fill-rule="evenodd" clip-rule="evenodd" d="M9.98405 28.0594H42.0153C42.0153 25.005 44.4054 22.5289 47.3538 22.5289V11.468C44.4054 11.468 42.0153 8.9919 42.0153 5.9375H9.98405C9.98405 8.9919 7.5939 11.468 4.64551 11.468V22.5289C7.5939 22.5289 9.98405 25.005 9.98405 28.0594Z" stroke="white" stroke-width="2" stroke-linecap="round" stroke-linejoin="round"/>
<path d="M12.1831 18.5786C13.0156 18.5786 13.6905 17.8711 13.6905 16.9984C13.6905 16.1258 13.0156 15.4183 12.1831 15.4183C11.3506 15.4183 10.6758 16.1258 10.6758 16.9984C10.6758 17.8711 11.3506 18.5786 12.1831 18.5786Z" stroke="white" stroke-width="2" stroke-linecap="round" stroke-linejoin="round"/>
<path d="M38.813 18.5786C39.6455 18.5786 40.3204 17.8711 40.3204 16.9984C40.3204 16.1258 39.6455 15.4183 38.813 15.4183C37.9805 15.4183 37.3057 16.1258 37.3057 16.9984C37.3057 17.8711 37.9805 18.5786 38.813 18.5786Z" stroke="white" stroke-width="2" stroke-linecap="round" stroke-linejoin="round"/>
</svg>
