<svg width="23" height="24" viewBox="0 0 23 24" fill="none" xmlns="http://www.w3.org/2000/svg">
<path d="M13.1717 11.6429L22.5467 0.467857C22.7039 0.282143 22.5717 0 22.3289 0H19.4789C19.311 0 19.1503 0.0749999 19.0396 0.203571L11.3074 9.42143L3.57529 0.203571C3.46814 0.0749999 3.30743 0 3.136 0H0.286001C0.0431434 0 -0.0889996 0.282143 0.0681432 0.467857L9.44314 11.6429L0.0681432 22.8179C0.0329418 22.8593 0.0103587 22.9099 0.00307429 22.9637C-0.00421011 23.0176 0.00411011 23.0724 0.027048 23.1216C0.049986 23.1709 0.0865781 23.2125 0.132479 23.2416C0.17838 23.2707 0.231663 23.286 0.286001 23.2857H3.136C3.30386 23.2857 3.46457 23.2107 3.57529 23.0821L11.3074 13.8643L19.0396 23.0821C19.1467 23.2107 19.3074 23.2857 19.4789 23.2857H22.3289C22.5717 23.2857 22.7039 23.0036 22.5467 22.8179L13.1717 11.6429Z" fill="black"/>
</svg>
