<svg width="140" height="140" viewBox="0 0 140 140" fill="none" xmlns="http://www.w3.org/2000/svg">
<path d="M107.202 42.6278C93.2893 41.2491 79.2934 40.5389 65.3394 40.5389C57.0672 40.5389 48.795 40.9567 40.5228 41.7923L32 42.6278" stroke="#FF0000" stroke-width="3" stroke-linecap="round" stroke-linejoin="round"/>
<path d="M54.9783 38.4083L55.8974 32.9353C56.5659 28.9663 57.0672 26 64.1278 26H75.0738C82.1344 26 82.6775 29.1334 83.3042 32.977L84.2233 38.4083" stroke="#FF0000" stroke-width="3" stroke-linecap="round" stroke-linejoin="round"/>
<path d="M98.2192 55.83L95.5036 97.9011C95.044 104.46 94.668 109.557 83.0118 109.557H56.19C44.5337 109.557 44.1577 104.46 43.6982 97.9011L40.9825 55.83" stroke="#FF0000" stroke-width="3" stroke-linecap="round" stroke-linejoin="round"/>
<path d="M62.6235 86.5791H76.5358" stroke="#FF0000" stroke-width="3" stroke-linecap="round" stroke-linejoin="round"/>
<path d="M59.1561 69.8676H80.0455" stroke="#FF0000" stroke-width="3" stroke-linecap="round" stroke-linejoin="round"/>
<circle cx="70" cy="70" r="68.5" stroke="#FF0000" stroke-width="3"/>
</svg>
