<svg width="32" height="32" viewBox="0 0 32 32" fill="none" xmlns="http://www.w3.org/2000/svg">
<g clip-path="url(#clip0_196_4277)">
<path d="M30.8571 3.42857H1.14286C0.510714 3.42857 0 3.93929 0 4.57143V27.4286C0 28.0607 0.510714 28.5714 1.14286 28.5714H30.8571C31.4893 28.5714 32 28.0607 32 27.4286V4.57143C32 3.93929 31.4893 3.42857 30.8571 3.42857ZM27.9714 7.31786L16.7036 16.0857C16.425 16.3036 16.0357 16.3036 15.7571 16.0857L4.48571 7.31786C4.44323 7.28507 4.41206 7.23981 4.39659 7.18841C4.38112 7.13702 4.38212 7.08207 4.39944 7.03128C4.41677 6.98048 4.44955 6.93638 4.49321 6.90515C4.53686 6.87392 4.58919 6.85714 4.64286 6.85715H27.8143C27.868 6.85714 27.9203 6.87392 27.9639 6.90515C28.0076 6.93638 28.0404 6.98048 28.0577 7.03128C28.075 7.08207 28.076 7.13702 28.0606 7.18841C28.0451 7.23981 28.0139 7.28507 27.9714 7.31786Z" fill="#73B72B"/>
</g>
<defs>
<clipPath id="clip0_196_4277">
<rect width="32" height="32" fill="white"/>
</clipPath>
</defs>
</svg>
