<svg width="22" height="28" viewBox="0 0 22 28" fill="none" xmlns="http://www.w3.org/2000/svg">
<path d="M18.5857 3.74643C16.5607 1.76786 13.8678 0.678574 11 0.678574C8.13213 0.678574 5.43928 1.76786 3.41428 3.74286C1.39642 5.71429 0.285706 8.32857 0.285706 11.1107C0.285706 19.7286 8.64642 25.6536 11 27.15C13.3536 25.6536 21.7143 19.7286 21.7143 11.1107C21.7143 8.32857 20.6036 5.71429 18.5857 3.74643ZM11 17.6786C7.52856 17.6786 4.71428 14.8643 4.71428 11.3929C4.71428 7.92143 7.52856 5.10715 11 5.10715C14.4714 5.10715 17.2857 7.92143 17.2857 11.3929C17.2857 14.8643 14.4714 17.6786 11 17.6786Z" fill="white"/>
</svg>
