<svg width="29" height="26" viewBox="0 0 29 26" fill="none" xmlns="http://www.w3.org/2000/svg">
<path d="M28.2857 0H0.285714C0.128571 0 0 0.128571 0 0.285714V2.57143C0 2.72857 0.128571 2.85714 0.285714 2.85714H28.2857C28.4429 2.85714 28.5714 2.72857 28.5714 2.57143V0.285714C28.5714 0.128571 28.4429 0 28.2857 0ZM28.2857 22.2857H0.285714C0.128571 22.2857 0 22.4143 0 22.5714V24.8571C0 25.0143 0.128571 25.1429 0.285714 25.1429H28.2857C28.4429 25.1429 28.5714 25.0143 28.5714 24.8571V22.5714C28.5714 22.4143 28.4429 22.2857 28.2857 22.2857ZM28.2857 11.1429H0.285714C0.128571 11.1429 0 11.2714 0 11.4286V13.7143C0 13.8714 0.128571 14 0.285714 14H28.2857C28.4429 14 28.5714 13.8714 28.5714 13.7143V11.4286C28.5714 11.2714 28.4429 11.1429 28.2857 11.1429Z" fill="black"/>
</svg>
