<svg width="30" height="30" viewBox="0 0 30 30" fill="none" xmlns="http://www.w3.org/2000/svg">
<path d="M28.0571 4.65L24.2536 0.85C23.9853 0.580513 23.6664 0.366693 23.3152 0.220823C22.964 0.0749534 22.5874 -9.11415e-05 22.2071 8.30697e-08C21.4321 8.30697e-08 20.7036 0.303572 20.1571 0.85L16.0643 4.94286C15.7948 5.21117 15.581 5.53007 15.4351 5.88127C15.2892 6.23246 15.2142 6.60901 15.2143 6.98929C15.2143 7.76429 15.5179 8.49286 16.0643 9.03929L19.0571 12.0321C18.3566 13.5763 17.3826 14.981 16.1821 16.1786C14.9847 17.3819 13.5801 18.3595 12.0357 19.0643L9.04286 16.0714C8.77455 15.8019 8.45564 15.5881 8.10445 15.4423C7.75326 15.2964 7.37671 15.2213 6.99643 15.2214C6.22143 15.2214 5.49286 15.525 4.94643 16.0714L0.850002 20.1607C0.580184 20.4295 0.36618 20.749 0.220303 21.1008C0.0744271 21.4527 -0.000442568 21.8299 1.96799e-06 22.2107C1.96799e-06 22.9857 0.303574 23.7143 0.850002 24.2607L4.64643 28.0571C5.51786 28.9321 6.72143 29.4286 7.95714 29.4286C8.21786 29.4286 8.46786 29.4071 8.71429 29.3643C13.5286 28.5714 18.3036 26.0107 22.1571 22.1607C26.0071 18.3143 28.5643 13.5429 29.3679 8.71429C29.6107 7.23929 29.1214 5.72143 28.0571 4.65Z" fill="#73B72B"/>
</svg>
