<svg width="52" height="46" viewBox="0 0 52 46" fill="none" xmlns="http://www.w3.org/2000/svg">
<path fill-rule="evenodd" clip-rule="evenodd" d="M17.748 15.4739C17.3835 15.6984 16.6969 17.1071 17.0075 18.3432C17.4695 20.1814 19.1128 20.8988 19.1128 20.8988C19.1128 20.8988 21.6836 24.2932 21.6836 26.2673C21.6836 28.2413 21.6836 29.0082 20.9947 30.6551C20.3057 32.302 6.78213 34.2761 6.20801 43.9849H25.8916L45.7913 43.987C45.2172 34.2782 31.6936 32.3041 31.0047 30.6572C30.3157 29.0104 30.3157 28.2434 30.3157 26.2694C30.3157 24.2953 32.8866 20.9009 32.8866 20.9009C32.8866 20.9009 34.5298 20.1835 34.9918 18.3453C35.3025 17.1093 34.6158 15.7005 34.2513 15.4761C35.2256 12.5032 37.1715 2.2545 26.1077 1.88512C26.0585 1.87813 26.0096 1.87938 25.9609 1.88082C14.8279 2.25238 16.7737 12.5011 17.748 15.4739Z" stroke="white" stroke-width="2" stroke-linecap="round" stroke-linejoin="round"/>
<path fill-rule="evenodd" clip-rule="evenodd" d="M1 37.5162C4.24791 35.2389 8.29741 34.3552 8.6274 33.5664C9.17278 32.2627 9.17278 31.6556 9.17278 30.0929C9.17278 28.5302 7.13764 25.8431 7.13764 25.8431C7.13764 25.8431 5.83677 25.2751 5.47104 23.8199C5.22513 22.8415 5.7687 21.7263 6.05724 21.5486C5.28596 19.1952 3.74557 11.082 12.5588 10.7879C12.5974 10.7868 12.6361 10.7858 12.675 10.7913C14.5757 10.8548 15.9914 11.2865 17.0352 11.9478C17.1712 13.4169 17.4931 14.6951 17.7483 15.4739C17.3838 15.6983 16.6972 17.1071 17.0078 18.3431C17.4698 20.1813 19.1131 20.8988 19.1131 20.8988C19.1131 20.8988 19.1667 20.9695 19.2584 21.0966C19.2117 21.2647 19.1655 21.4167 19.1218 21.5503C19.4103 21.7279 19.9539 22.8431 19.7079 23.8216C19.3422 25.2768 18.0413 25.8447 18.0413 25.8447C18.0413 25.8447 16.0062 28.5319 16.0062 30.0946C16.0062 31.3974 16.0062 32.036 16.3222 32.9679C12.1215 34.7941 6.57168 37.8405 6.20833 43.9849H25.8919L45.7917 43.987C45.4215 37.7278 39.6693 34.6834 35.4437 32.8689C35.7353 31.9763 35.7353 31.3374 35.7353 30.0691C35.7353 28.5064 33.7001 25.8193 33.7001 25.8193C33.7001 25.8193 32.3993 25.2514 32.0335 23.7962C31.7876 22.8177 32.3312 21.7025 32.6197 21.5248C32.6015 21.4693 32.5829 21.4105 32.564 21.3487C32.7606 21.0676 32.8869 20.9009 32.8869 20.9009C32.8869 20.9009 34.5302 20.1835 34.9922 18.3453C35.3028 17.1092 34.6162 15.7005 34.2517 15.476C34.5171 14.6661 34.8546 13.3163 34.9816 11.7732C36.0056 11.1958 37.3557 10.8231 39.1213 10.7641C39.1599 10.763 39.1986 10.762 39.2375 10.7675C47.9959 11.0599 46.4555 19.1731 45.6842 21.5265C45.9728 21.7042 46.5164 22.8194 46.2704 23.7979C45.9047 25.253 44.6038 25.821 44.6038 25.821C44.6038 25.821 42.5687 28.5081 42.5687 30.0708C42.5687 31.6335 42.5687 32.2406 43.1141 33.5444C43.4529 34.3542 47.7126 35.2641 51 37.6797V44.0962L39.0665 44.0949H28.2556C28.2561 44.1034 28.2566 44.1118 28.2571 44.1203L12.504 44.1187H1V37.5162Z" stroke="white" stroke-width="2" stroke-linecap="round" stroke-linejoin="round"/>
</svg>
